Coordinates
version=1
nRows=28
nColumns=33
inDegrees=yes

Units are S.I. units (second, meters, Newtons, ...)
Angles are in degrees.

endheader
time	ground_thorax_rot_x	ground_thorax_rot_y	ground_thorax_rot_z	ground_thorax_tx	ground_thorax_ty	ground_thorax_tz	clav_prot_r	clav_elev_r	scapula_abduction_r	scapula_elevation_r	scapula_upward_rot_r	scapula_winging_r	shoulder_elv_r	plane_of_elev_r	axial_rot_r	elbow_flexion_r	pro_sup_r	wrist_flex_r	wrist_dev_r	clav_prot_l	clav_elev_l	scapula_abduction_l	scapula_elevation_l	scapula_upward_rot_l	scapula_winging_l	shoulder_elv_l	plane_of_elev_l	axial_rot_l	elbow_flexion_l	pro_sup_l	wrist_flex_l	wrist_dev_l	
6.6900	-34.189567	-18.257489	30.134595	-176.863750	815.873701	5.752707	6.173521	-45.000000	40.195291	-45.000000	-29.274421	-2621.226053	-2629.148115	147.216050	-115.768947	732.897022	22.627233	19.536914	7.875736	14.742358	37.971725	-37.522814	-45.000000	-45.000000	1523.163724	-2612.552555	134.194682	-180.000000	11.647032	26.784220	6.713071	-22.102330	
6.7000	-34.354707	-17.940099	29.743207	-179.514973	816.874388	5.769030	6.161822	-45.000000	40.189826	-45.000000	-29.201613	-2621.315999	-2628.995149	147.173243	-115.841844	732.911614	22.129667	19.542386	7.818188	14.722482	37.949643	-37.537692	-45.000000	-45.000000	1523.282083	-2612.461184	134.208274	-180.000000	11.660629	26.474924	6.657405	-22.075806	
6.7100	-34.510280	-17.637749	29.371930	-182.124928	817.844261	5.784745	6.155137	-45.000000	40.181375	-45.000000	-29.158221	-2621.401343	-2628.850825	147.130216	-115.912723	732.916999	21.632928	19.545789	7.768250	14.710021	37.914103	-37.535272	-45.000000	-45.000000	1523.397367	-2612.379143	134.216967	-180.000000	11.660540	26.198613	6.595477	-22.042556	
6.7200	-34.652159	-17.358535	29.025588	-184.693934	818.785339	5.800711	6.157558	-45.000000	40.174680	-45.000000	-29.157209	-2621.482571	-2628.711732	147.083145	-115.972386	732.917900	21.135695	19.548647	7.729542	14.711129	37.853472	-37.509326	-45.000000	-45.000000	1523.513661	-2612.308888	134.215236	-180.000000	11.643100	25.957211	6.520956	-21.998997	
6.7300	-34.789828	-17.088056	28.691861	-187.221469	819.699363	5.817020	6.160082	-45.000000	40.164290	-45.000000	-29.169466	-2621.559746	-2628.580980	147.040214	-116.034590	732.914017	20.640683	19.550063	7.692320	14.709881	37.792277	-37.473914	-45.000000	-45.000000	1523.626131	-2612.245499	134.212947	-180.000000	11.621943	25.759332	6.443122	-21.954785	
6.7400	-34.923148	-16.826078	28.370584	-189.706543	820.587637	5.833328	6.165258	-45.000000	40.150352	-45.000000	-29.202993	-2621.633576	-2628.457387	146.995838	-116.094175	732.906573	20.153042	19.549992	7.655998	14.710465	37.725749	-37.429820	-45.000000	-45.000000	1523.732804	-2612.187854	134.211954	-180.000000	11.599258	25.609221	6.357186	-21.908841	
6.7500	-35.056189	-16.566410	28.056666	-192.147637	821.450773	5.849275	6.167650	-45.000000	40.129537	-45.000000	-29.242962	-2621.705571	-2628.341505	146.954818	-116.156326	732.899325	19.680488	19.549135	7.615641	14.706156	37.664746	-37.383122	-45.000000	-45.000000	1523.832211	-2612.134068	134.213843	-180.000000	11.581263	25.513730	6.266111	-21.865278	
6.7600	-35.190747	-16.304888	27.743632	-194.543340	822.288743	5.864947	6.166571	-45.000000	40.101508	-45.000000	-29.288103	-2621.774747	-2628.232326	146.914621	-116.222469	732.894756	19.231030	19.547613	7.567828	14.694258	37.614515	-37.336410	-45.000000	-45.000000	1523.920449	-2612.082290	134.222836	-180.000000	11.573177	25.476833	6.170614	-21.826288	
6.7700	-35.330001	-16.037771	27.427930	-196.892290	823.100721	5.881065	6.156914	-45.000000	40.063410	-45.000000	-29.325168	-2621.842031	-2628.129845	146.879848	-116.297656	732.896335	18.814392	19.545687	7.507020	14.669294	37.584767	-37.294238	-45.000000	-45.000000	1523.996867	-2612.030809	134.241532	-180.000000	11.580839	25.503317	6.073351	-21.795028	
6.7800	-35.468123	-15.776539	27.120116	-199.193376	823.885098	5.898983	6.147059	-45.000000	40.018133	-45.000000	-29.375562	-2621.907423	-2628.034233	146.844562	-116.370071	732.901474	18.436035	19.542458	7.437594	14.642433	37.558471	-37.248553	-45.000000	-45.000000	1524.065092	-2611.981577	134.264900	-180.000000	11.594029	25.591407	5.966402	-21.764378	
6.7900	-35.603237	-15.527738	26.827054	-201.445637	824.639545	5.920502	6.138785	-45.000000	39.966551	-45.000000	-29.443545	-2621.972040	-2627.944990	146.810449	-116.435930	732.908966	18.097148	19.537438	7.361025	14.616318	37.530338	-37.196910	-45.000000	-45.000000	1524.129355	-2611.935285	134.289028	-180.000000	11.608382	25.739249	5.847251	-21.731399	
6.8000	-35.735917	-15.288377	26.545436	-203.648177	825.361186	5.947527	6.131858	-45.000000	39.909357	-45.000000	-29.528007	-2622.033954	-2627.861898	146.777882	-116.495879	732.916242	17.796232	19.529446	7.275511	14.586479	37.505917	-37.140933	-45.000000	-45.000000	1524.186620	-2611.890830	134.316917	-180.000000	11.626114	25.944683	5.718990	-21.697637	
6.8100	-35.870891	-15.048969	26.268008	-205.800159	826.046875	5.981656	6.119693	-45.000000	39.841686	-45.000000	-29.615369	-2622.093424	-2627.785746	146.750381	-116.553633	732.923624	17.533721	19.517707	7.174018	14.542783	37.499772	-37.087446	-45.000000	-45.000000	1524.233234	-2611.843877	134.352340	-180.000000	11.655899	26.205300	5.586754	-21.667701	
6.8200	-36.005240	-14.814580	25.998888	-207.900913	826.693552	6.023818	6.105935	-45.000000	39.765519	-45.000000	-29.715550	-2622.150702	-2627.715933	146.724309	-116.599189	732.931210	17.310757	19.502278	7.060111	14.492766	37.502607	-37.032790	-45.000000	-45.000000	1524.271432	-2611.795504	134.392230	-180.000000	11.692388	26.516448	5.447493	-21.637534	
6.8300	-36.138915	-14.587141	25.738463	-209.950021	827.298608	6.074050	6.091031	-45.000000	39.681701	-45.000000	-29.828645	-2622.206272	-2627.652083	146.700218	-116.628313	732.940075	17.128139	19.483654	6.934262	14.437013	37.512943	-36.976288	-45.000000	-45.000000	1524.303085	-2611.745995	134.434429	-180.000000	11.734333	26.874625	5.302027	-21.606223	
6.8400	-36.270257	-14.370789	25.487795	-211.947319	827.860184	6.131504	6.076272	-45.000000	39.595540	-45.000000	-29.955664	-2622.259311	-2627.592284	146.679143	-116.638160	732.952971	16.987998	19.463147	6.799375	14.379969	37.526832	-36.917567	-45.000000	-45.000000	1524.331551	-2611.699879	134.478906	-180.000000	11.779710	27.279362	5.151796	-21.572694	
6.8500	-36.395782	-14.173088	25.254548	-213.893116	828.377460	6.194675	6.066182	-45.000000	39.508898	-45.000000	-30.108053	-2622.311113	-2627.537517	146.659770	-116.621302	732.968494	16.891970	19.441017	6.658233	14.328300	37.533141	-36.851577	-45.000000	-45.000000	1524.361352	-2611.659884	134.518913	-180.000000	11.821574	27.727984	4.993171	-21.532168	
6.8600	-36.512584	-14.001385	25.045819	-215.788215	828.850791	6.261765	6.065991	-45.000000	39.425931	-45.000000	-30.294879	-2622.362467	-2627.486938	146.641063	-116.574906	732.984508	16.840360	19.417502	6.516687	14.290347	37.521250	-36.775842	-45.000000	-45.000000	1524.395650	-2611.628965	134.552695	-180.000000	11.854113	28.218988	4.824376	-21.481139	
6.8700	-36.623617	-13.848162	24.855448	-217.633978	829.281737	6.331100	6.073244	-45.000000	39.344393	-45.000000	-30.511224	-2622.412822	-2627.440786	146.623416	-116.504222	732.998421	16.831855	19.392253	6.372463	14.258844	37.498911	-36.692612	-45.000000	-45.000000	1524.431307	-2611.602085	134.578776	-180.000000	11.879452	28.748498	4.649622	-21.422075	
6.8800	-36.730527	-13.710220	24.680878	-219.432275	829.672944	6.401431	6.086235	-45.000000	39.263796	-45.000000	-30.750396	-2622.462147	-2627.399219	146.607717	-116.415023	733.009149	16.865344	19.364973	6.226034	14.232400	37.470323	-36.605316	-45.000000	-45.000000	1524.465864	-2611.577770	134.601678	-180.000000	11.899591	29.311189	4.472594	-21.357100	
6.8900	-36.836737	-13.578034	24.512154	-221.185381	830.027966	6.472075	6.099424	-45.000000	39.181399	-45.000000	-31.000893	-2622.510074	-2627.362248	146.594767	-116.316365	733.018897	16.939718	19.336182	6.074364	14.202329	37.446639	-36.517799	-45.000000	-45.000000	1524.496733	-2611.553149	134.621948	-180.000000	11.920381	29.899865	4.297987	-21.290080	
6.9000	-36.941657	-13.453378	24.350121	-222.895992	830.351031	6.542817	6.113539	-45.000000	39.097754	-45.000000	-31.261064	-2622.556860	-2627.330042	146.583573	-116.211990	733.027813	17.054340	19.305760	5.920230	14.171982	37.425625	-36.430692	-45.000000	-45.000000	1524.524059	-2611.530218	134.642926	-180.000000	11.941358	30.508152	4.126341	-21.220726	
6.9100	-37.044470	-13.334801	24.191752	-224.566843	830.646730	6.613659	6.127975	-45.000000	39.013209	-45.000000	-31.529974	-2622.602259	-2627.301747	146.572728	-116.105838	733.037961	17.207495	19.274427	5.765179	14.140712	37.407083	-36.343183	-45.000000	-45.000000	1524.548912	-2611.510405	134.662286	-180.000000	11.962874	31.130732	3.957692	-21.148911	
6.9200	-37.144187	-13.222460	24.036839	-226.200716	830.919761	6.684479	6.142763	-45.000000	38.928662	-45.000000	-31.806921	-2622.644130	-2627.278153	146.561415	-116.000563	733.044509	17.397551	19.240996	5.611659	14.109894	37.389684	-36.255476	-45.000000	-45.000000	1524.570057	-2611.496056	134.681475	-180.000000	11.979654	31.764336	3.792748	-21.073670	
6.9300	-37.237207	-13.116152	23.878863	-227.799940	831.174622	6.754732	6.157474	-45.000000	38.847659	-45.000000	-32.097554	-2622.684325	-2627.249413	146.541562	-115.893247	733.058886	17.622429	19.209433	5.462729	14.084055	37.365849	-36.161863	-45.000000	-45.000000	1524.595148	-2611.489997	134.687558	-180.000000	11.993959	32.404104	3.627726	-20.992652	
6.9400	-37.327397	-13.016528	23.725078	-229.366788	831.415460	6.823289	6.172233	-45.000000	38.767471	-45.000000	-32.393002	-2622.724928	-2627.222747	146.522403	-115.790385	733.074262	17.882117	19.177031	5.315972	14.059346	37.341989	-36.072142	-45.000000	-45.000000	1524.620400	-2611.487055	134.697230	-180.000000	12.011698	33.048299	3.465342	-20.909900	
6.9500	-37.415188	-12.924021	23.575364	-230.903134	831.645859	6.888463	6.188422	-45.000000	38.687997	-45.000000	-32.690639	-2622.768270	-2627.198287	146.504676	-115.697483	733.095493	18.178925	19.145112	5.170954	14.036061	37.317117	-35.982575	-45.000000	-45.000000	1524.650682	-2611.482580	134.702911	-180.000000	12.033427	33.698047	3.306144	-20.826168	
6.9600	-37.503198	-12.838835	23.435045	-232.410648	831.868794	6.948195	6.207683	-45.000000	38.604033	-45.000000	-32.986250	-2622.815636	-2627.180885	146.491914	-115.619594	733.117927	18.517272	19.111545	5.024699	14.010532	37.295524	-35.900509	-45.000000	-45.000000	1524.679336	-2611.473720	134.718990	-180.000000	12.058651	34.355543	3.151536	-20.742961	
